<svg xmlns="http://www.w3.org/2000/svg" width="24" height="24" viewBox="0 0 24 24">
  <defs>
    <style>
      .cls-1, .cls-2, .cls-3 {
        fill: none;
      }

      .cls-2 {
        stroke: #888;
        stroke-width: 2px;
      }

      .cls-4, .cls-5 {
        stroke: none;
      }

      .cls-5 {
        fill: #888;
      }
    </style>
  </defs>
  <g id="icon_eye" transform="translate(-924 -463.5)">
    <rect id="area" class="cls-1" width="24" height="24" transform="translate(924 463.5)"/>
    <g id="타원_5272" data-name="타원 5272" class="cls-2" transform="translate(932.8 472.3)">
      <circle class="cls-4" cx="3.2" cy="3.2" r="3.2"/>
      <circle class="cls-1" cx="3.2" cy="3.2" r="2.2"/>
    </g>
    <g id="패스_2909" data-name="패스 2909" class="cls-3" transform="translate(926.4 465.1)">
      <path class="cls-4" d="M9.6,4c5.3,0,9.6,4.852,9.6,6.4s-4.3,6.4-9.6,6.4S0,11.977,0,10.4,4.3,4,9.6,4Z"/>
      <path class="cls-5" d="M 9.600000381469727 6.000000953674316 C 7.282939910888672 6.000000953674316 5.331419944763184 7.206760406494141 4.374370574951172 7.926100730895996 C 3.025201797485352 8.940158843994141 2.300430297851562 9.942320823669434 2.062143325805664 10.40000057220459 C 2.300430297851562 10.85768032073975 3.025201797485352 11.85984230041504 4.374370574951172 12.87390041351318 C 6.604050636291504 14.54977035522461 8.605440139770508 14.80000114440918 9.600000381469727 14.80000114440918 C 11.90925979614258 14.80000114440918 13.8605899810791 13.59029006958008 14.8182201385498 12.86920070648193 C 16.15765190124512 11.86060810089111 16.88619041442871 10.86350154876709 17.13272476196289 10.40000057220459 C 16.88619041442871 9.93649959564209 16.15765190124512 8.939393043518066 14.8182201385498 7.930800437927246 C 12.58719062805176 6.250840187072754 10.59121036529541 6.000000953674316 9.600000381469727 6.000000953674316 M 9.600000381469727 4 C 14.90192985534668 4 19.20000076293945 8.852420806884766 19.20000076293945 10.40000057220459 C 19.20000076293945 11.94758033752441 14.90192985534668 16.80000114440918 9.600000381469727 16.80000114440918 C 4.298069953918457 16.80000114440918 0 11.97715091705322 0 10.40000057220459 C 0 8.822850227355957 4.298069953918457 4 9.600000381469727 4 Z"/>
    </g>
  </g>
</svg>
