<svg xmlns="http://www.w3.org/2000/svg" xmlns:xlink="http://www.w3.org/1999/xlink" width="24" height="24" viewBox="0 0 24 24">
  <defs>
    <style>
      .cls-1 {
        fill: #fff;
      }

      .cls-2, .cls-3, .cls-6 {
        fill: none;
      }

      .cls-3 {
        stroke: #888;
        stroke-width: 2px;
      }

      .cls-4 {
        clip-path: url(#clip-path);
      }

      .cls-5 {
        clip-path: url(#clip-path-2);
      }

      .cls-7 {
        clip-path: url(#clip-path-3);
      }

      .cls-8, .cls-9 {
        stroke: none;
      }

      .cls-9 {
        fill: #888;
      }
    </style>
    <clipPath id="clip-path">
      <path id="패스_2587" data-name="패스 2587" class="cls-1" d="M941.319,474.684l-6.445,6.237-1.788-4.316,3.538-4.061Z" transform="translate(-933.086 -472.543)"/>
    </clipPath>
    <clipPath id="clip-path-2">
      <path id="패스_2589" data-name="패스 2589" class="cls-1" d="M945.98,473.213l-10.08,11.38h10.08l3.737-7.365Z" transform="translate(-935.899 -473.213)"/>
    </clipPath>
    <clipPath id="clip-path-3">
      <path id="패스_2590" data-name="패스 2590" class="cls-1" d="M943.511,469.7,930.322,484.07l-5.406-7.137,6.257-6.714Z" transform="translate(-924.916 -470.219)"/>
    </clipPath>
  </defs>
  <g id="icon_eye_off" transform="translate(-924 -463.5)">
    <rect id="area" class="cls-2" width="24" height="24" transform="translate(924 463.5)"/>
    <line id="선_666" data-name="선 666" class="cls-3" x1="14.4" y2="16" transform="translate(929.2 467.9)"/>
    <g id="마스크_그룹_64" data-name="마스크 그룹 64" class="cls-4" transform="translate(931.269 470.734)">
      <g id="타원_5155" data-name="타원 5155" class="cls-3" transform="translate(1.531 1.566)">
        <circle class="cls-8" cx="3.2" cy="3.2" r="3.2"/>
        <circle class="cls-2" cx="3.2" cy="3.2" r="2.2"/>
      </g>
    </g>
    <g id="마스크_그룹_65" data-name="마스크 그룹 65" class="cls-5" transform="translate(933.52 471.27)">
      <g id="패스_2907" data-name="패스 2907" class="cls-6" transform="translate(-7.119 -6.17)">
        <path class="cls-8" d="M9.6,4c5.3,0,9.6,4.852,9.6,6.4s-4.3,6.4-9.6,6.4S0,11.977,0,10.4,4.3,4,9.6,4Z"/>
        <path class="cls-9" d="M 9.600000381469727 6.000000953674316 C 7.282939910888672 6.000000953674316 5.331419944763184 7.206760406494141 4.374370574951172 7.926100730895996 C 3.025201797485352 8.940158843994141 2.300430297851562 9.942320823669434 2.062143325805664 10.40000057220459 C 2.300430297851562 10.85768032073975 3.025201797485352 11.85984230041504 4.374370574951172 12.87390041351318 C 6.604050636291504 14.54977035522461 8.605440139770508 14.80000114440918 9.600000381469727 14.80000114440918 C 11.90925979614258 14.80000114440918 13.8605899810791 13.59029006958008 14.8182201385498 12.86920070648193 C 16.15765190124512 11.86060810089111 16.88619041442871 10.86350154876709 17.13272476196289 10.40000057220459 C 16.88619041442871 9.93649959564209 16.15765190124512 8.939393043518066 14.8182201385498 7.930800437927246 C 12.58719062805176 6.250840187072754 10.59121036529541 6.000000953674316 9.600000381469727 6.000000953674316 M 9.600000381469727 4 C 14.90192985534668 4 19.20000076293945 8.852420806884766 19.20000076293945 10.40000057220459 C 19.20000076293945 11.94758033752441 14.90192985534668 16.80000114440918 9.600000381469727 16.80000114440918 C 4.298069953918457 16.80000114440918 0 11.97715091705322 0 10.40000057220459 C 0 8.822850227355957 4.298069953918457 4 9.600000381469727 4 Z"/>
      </g>
    </g>
    <g id="마스크_그룹_66" data-name="마스크 그룹 66" class="cls-7" transform="translate(924.733 468.875)">
      <g id="패스_2908" data-name="패스 2908" class="cls-6" transform="translate(1.668 -3.775)">
        <path class="cls-8" d="M9.6,4c5.3,0,9.6,4.852,9.6,6.4s-4.3,6.4-9.6,6.4S0,11.977,0,10.4,4.3,4,9.6,4Z"/>
        <path class="cls-9" d="M 9.600000381469727 6.000000953674316 C 7.282939910888672 6.000000953674316 5.331419944763184 7.206760406494141 4.374370574951172 7.926100730895996 C 3.025201797485352 8.940158843994141 2.300430297851562 9.942320823669434 2.062143325805664 10.40000057220459 C 2.300430297851562 10.85768032073975 3.025201797485352 11.85984230041504 4.374370574951172 12.87390041351318 C 6.604050636291504 14.54977035522461 8.605440139770508 14.80000114440918 9.600000381469727 14.80000114440918 C 11.90925979614258 14.80000114440918 13.8605899810791 13.59029006958008 14.8182201385498 12.86920070648193 C 16.15765190124512 11.86060810089111 16.88619041442871 10.86350154876709 17.13272476196289 10.40000057220459 C 16.88619041442871 9.93649959564209 16.15765190124512 8.939393043518066 14.8182201385498 7.930800437927246 C 12.58719062805176 6.250840187072754 10.59121036529541 6.000000953674316 9.600000381469727 6.000000953674316 M 9.600000381469727 4 C 14.90192985534668 4 19.20000076293945 8.852420806884766 19.20000076293945 10.40000057220459 C 19.20000076293945 11.94758033752441 14.90192985534668 16.80000114440918 9.600000381469727 16.80000114440918 C 4.298069953918457 16.80000114440918 0 11.97715091705322 0 10.40000057220459 C 0 8.822850227355957 4.298069953918457 4 9.600000381469727 4 Z"/>
      </g>
    </g>
  </g>
</svg>
